<?xml version="1.0" standalone="no"?>
<!DOCTYPE svg PUBLIC "-//W3C//DTD SVG 20010904//EN"
 "http://www.w3.org/TR/2001/REC-SVG-20010904/DTD/svg10.dtd">
<svg version="1.0" xmlns="http://www.w3.org/2000/svg"
 width="700.000000pt" height="700.000000pt" viewBox="0 0 700.000000 700.000000"
 preserveAspectRatio="xMidYMid meet">
<metadata>
Created by potrace 1.14, written by Peter Selinger 2001-2017
</metadata>
<g transform="translate(0.000000,700.000000) scale(0.100000,-0.100000)"
fill="#000000" stroke="none">
<path d="M806 6762 c5 -5 38 -16 74 -26 168 -44 356 -108 373 -128 33 -39 13
-109 -36 -122 -14 -3 -86 14 -182 44 -240 75 -748 200 -760 188 -3 -3 117
-564 266 -1249 262 -1199 273 -1245 300 -1270 38 -36 38 -72 -2 -111 -23 -24
-46 -76 -98 -222 -272 -762 -425 -1365 -486 -1921 -23 -207 -31 -715 -15 -967
16 -260 21 -278 45 -162 26 130 113 451 130 485 26 49 94 53 129 6 20 -27 20
-28 3 -90 -81 -287 -142 -563 -202 -919 -3 -18 0 -26 8 -23 10 4 1978 474
2337 559 l95 22 -3 38 c-5 49 27 86 73 86 39 0 69 -30 86 -88 11 -37 23 -51
88 -96 430 -302 896 -474 1471 -542 209 -25 789 -30 1128 -10 150 9 286 16
302 16 52 0 32 16 -42 33 -164 39 -296 87 -317 114 -24 29 -26 42 -10 77 21
46 58 51 146 23 198 -65 375 -107 572 -137 136 -21 390 -44 397 -37 5 5 -598
2445 -615 2490 -13 34 -6 51 68 150 131 177 273 436 359 652 152 383 238 812
273 1355 12 186 7 964 -7 1078 l-7 53 -53 -185 c-65 -224 -140 -432 -166 -458
-28 -28 -85 -21 -112 15 -24 32 -28 11 68 292 88 260 213 771 193 791 -5 6
-258 -42 -1952 -368 -286 -54 -547 -104 -579 -110 l-59 -11 30 -12 c33 -14 43
-36 98 -230 31 -109 32 -155 5 -180 -27 -24 -76 -23 -101 2 -19 19 -109 305
-109 347 0 11 10 30 22 43 21 22 21 23 1 23 -11 0 -59 27 -107 61 -567 396
-1144 577 -2003 629 -204 12 -1131 14 -1117 2z m814 -279 c157 -66 187 -82
199 -110 22 -47 -12 -103 -63 -103 -40 0 -316 116 -338 142 -33 38 -21 94 25
113 36 15 48 12 177 -42z m471 -224 c156 -78 393 -229 563 -357 177 -134 382
-319 397 -359 10 -27 -4 -70 -29 -89 -41 -31 -69 -18 -175 84 -216 204 -466
385 -775 557 -106 59 -132 83 -132 123 0 29 42 72 70 72 11 0 48 -14 81 -31z
m2185 -782 c31 -27 49 -111 60 -278 6 -100 6 -107 -15 -128 -26 -26 -71 -27
-101 -3 -19 16 -25 38 -40 158 -10 76 -21 156 -25 176 -6 33 -4 41 23 68 36
36 62 38 98 7z m-1037 -145 c60 -63 181 -254 181 -285 0 -33 -40 -77 -70 -77
-37 0 -58 18 -106 93 -25 39 -68 102 -95 138 -56 76 -61 108 -24 144 36 36 71
32 114 -13z m3179 -38 c12 -14 22 -33 22 -43 0 -23 -136 -290 -163 -318 -43
-47 -127 -17 -127 45 0 42 149 324 180 339 31 16 59 8 88 -23z m-2096 -411
c25 -30 28 -50 17 -136 -17 -144 -40 -241 -62 -264 -43 -47 -127 -17 -127 45
0 15 7 59 15 97 8 39 18 105 21 148 9 97 28 127 83 127 24 0 44 -7 53 -17z
m-800 -43 c29 -22 87 -184 118 -329 43 -198 50 -441 17 -628 -7 -40 -11 -73
-9 -73 2 0 20 13 39 30 50 45 102 40 129 -12 21 -40 11 -66 -44 -115 -26 -23
-43 -45 -39 -49 14 -14 474 -10 576 5 89 12 95 12 120 -6 47 -35 40 -106 -12
-128 -59 -24 -260 -38 -493 -33 l-223 5 20 -28 c11 -16 24 -31 30 -35 19 -12
29 -53 18 -81 -13 -35 -37 -52 -72 -53 -29 0 -54 20 -113 93 l-31 38 -12 -101
c-28 -252 -8 -512 61 -783 17 -69 27 -128 24 -143 -9 -34 -62 -59 -98 -45 -36
13 -51 45 -82 171 -68 277 -86 505 -60 785 l5 60 -28 -27 c-55 -53 -133 -26
-133 46 0 26 11 46 47 87 l48 52 -129 -7 c-254 -13 -501 -56 -734 -126 -111
-34 -137 -38 -155 -28 -49 26 -62 83 -28 117 63 63 559 172 847 186 60 3 133
8 162 11 l53 6 -50 53 c-60 63 -67 100 -26 140 42 43 71 34 147 -45 l66 -71
11 51 c28 129 33 202 28 375 -6 197 -26 307 -86 477 -37 104 -38 122 -6 153
29 30 64 32 97 5z m2592 -51 c47 -37 37 -76 -48 -193 -220 -300 -510 -579
-761 -730 -84 -50 -132 -47 -153 12 -16 46 5 76 93 133 252 163 514 419 710
694 77 108 108 124 159 84z m-4115 -384 c45 -23 55 -75 23 -115 -17 -20 -32
-24 -127 -31 -60 -4 -142 -11 -181 -14 -69 -7 -74 -6 -98 18 -54 54 -20 120
66 132 44 6 174 18 266 24 13 0 36 -6 51 -14z m497 -25 c110 -22 134 -39 134
-95 0 -42 -42 -79 -80 -72 -121 22 -214 37 -263 42 -38 4 -66 14 -78 26 -27
27 -25 82 4 110 20 19 29 21 103 15 45 -3 126 -15 180 -26z m-1071 -55 c32
-31 33 -74 2 -103 -32 -31 -332 -91 -374 -76 -57 20 -63 94 -11 128 23 15 280
74 331 75 17 1 37 -8 52 -24z m2743 -12 c36 -31 36 -62 1 -128 -39 -73 -117
-190 -152 -227 -34 -36 -79 -37 -112 -3 -36 35 -31 62 26 140 28 39 69 103 91
143 22 39 47 76 56 82 26 15 68 12 90 -7z m-1244 -79 c89 -46 197 -115 225
-145 40 -44 18 -109 -44 -125 -20 -5 -45 7 -117 54 -51 33 -116 71 -145 86
-84 42 -106 94 -58 141 32 33 55 31 139 -11z m2086 -414 c25 -25 27 -81 3
-102 -10 -9 -32 -23 -49 -31 -50 -26 -264 -97 -291 -97 -31 0 -73 42 -73 74 0
43 38 71 141 104 52 17 115 40 140 51 58 26 104 26 129 1z m-2891 -436 c27
-35 27 -70 -1 -96 -31 -28 -299 -178 -319 -178 -9 0 -28 10 -43 21 -23 18 -27
28 -24 63 3 37 8 44 58 77 101 67 244 139 277 139 22 0 38 -8 52 -26z m1046
-159 c36 -35 31 -63 -25 -143 -27 -39 -70 -105 -96 -147 -48 -80 -74 -96 -123
-79 -32 12 -56 53 -48 85 8 32 140 235 180 277 38 40 78 42 112 7z m768 14
c12 -7 45 -33 72 -58 28 -26 82 -73 122 -105 40 -31 75 -67 78 -78 16 -48 -39
-107 -89 -94 -28 7 -155 105 -233 181 -44 43 -53 57 -53 87 0 34 17 59 50 71
23 8 30 8 53 -4z m-2318 -174 c45 -44 35 -70 -57 -154 -251 -227 -423 -438
-604 -741 -89 -149 -113 -171 -161 -148 -15 7 -34 26 -42 43 -13 27 -12 33 19
92 150 291 440 657 689 870 84 71 116 79 156 38z m2864 -199 c44 -19 113 -44
153 -56 78 -23 108 -47 108 -87 0 -35 -15 -59 -48 -72 -25 -10 -42 -8 -128 20
-122 39 -225 84 -241 106 -23 30 -16 79 13 102 36 28 49 27 143 -13z m1416
-41 c31 -30 32 -66 3 -99 -20 -22 -46 -30 -183 -58 -182 -36 -208 -34 -231 16
-15 30 -15 35 0 64 9 18 26 34 39 37 79 20 297 63 320 64 17 1 37 -8 52 -24z
m-610 -79 c37 -16 52 -48 41 -91 -11 -42 -42 -53 -151 -55 -217 -5 -244 -2
-270 25 -30 29 -32 64 -4 98 20 26 21 27 182 30 89 1 163 4 165 5 1 1 18 -4
37 -12z m-2413 -33 c28 -32 29 -59 8 -113 -12 -29 -34 -100 -50 -158 -17 -58
-37 -114 -47 -124 -22 -24 -77 -24 -103 2 -27 27 -25 67 9 191 53 186 73 219
131 219 23 0 43 -7 52 -17z m825 -488 c29 -20 173 -300 173 -336 0 -32 -40
-69 -75 -69 -36 0 -61 28 -119 134 -83 149 -101 200 -86 235 19 46 69 63 107
36z m-952 -96 c18 -18 19 -31 17 -202 -4 -198 -6 -208 -64 -222 -22 -6 -33 -1
-58 23 l-30 30 0 169 c0 139 3 173 16 191 31 44 79 49 119 11z m-2020 -235 c8
-4 23 -20 31 -37 16 -29 14 -34 -46 -186 -65 -162 -91 -201 -136 -201 -32 0
-74 42 -74 73 0 37 118 320 141 340 22 17 55 22 84 11z m3295 -203 c14 -15 62
-72 107 -127 163 -199 422 -434 656 -598 111 -77 120 -87 120 -128 0 -38 -33
-68 -75 -68 -66 0 -391 252 -618 479 -160 160 -316 345 -326 387 -7 29 18 71
49 84 31 12 58 3 87 -29z m-1250 -151 c11 -11 22 -30 24 -42 33 -161 56 -289
56 -311 0 -65 -92 -91 -131 -37 -16 22 -79 294 -79 343 0 10 11 29 25 42 30
31 77 33 105 5z m2482 -846 c84 -42 158 -84 165 -93 28 -37 4 -100 -46 -116
-22 -7 -98 23 -234 91 -104 53 -127 74 -127 114 0 36 38 80 69 80 11 0 89 -34
173 -76z"/>
</g>
</svg>
