<svg width="47" height="47" viewBox="0 0 47 47" fill="none" xmlns="http://www.w3.org/2000/svg">
<path d="M5.06333 19.2578L1.12646 1.20244C13.4805 0.731042 20.2003 0.676529 27.1098 5.73548L36.3221 3.96837L45.5344 2.20125C46.8729 15.6467 45.294 22.4444 41.2038 27.8629L45.5344 45.3035C33.5457 46.293 26.6888 47.0325 19.3935 41.6156L10.5356 43.7285L1.67763 45.8413C0.178084 35.8593 1.10777 30.0121 5.06333 19.2578Z" fill="#485676" stroke="#EBEDEB" stroke-linecap="round" stroke-linejoin="round"/>
<path d="M23.5667 22.7152C28.9996 19.2578 30.0096 14.2429 27.1099 5.73553M23.5667 22.7152C18.522 27.5892 16.4016 32.4728 19.3936 41.6157M23.5667 22.7152C28.4623 29.018 32.2085 30.3951 41.2039 27.8629M23.5667 22.7152C20.181 18.4127 16.4217 16.2234 5.06337 19.2578" stroke="#EBEDEB" stroke-linecap="round" stroke-linejoin="round" stroke-dasharray="2 2"/>
<path d="M45.5344 2.2012C43.5659 14.7247 36.2057 24.8775 23.5666 22.7151M23.5666 22.7151C11.255 22.3159 3.72478 30.4751 1.6776 45.8413M23.5666 22.7151C20.8108 34.5471 32.9364 45.3035 45.5344 45.3035M23.5666 22.7151C26.7161 13.649 17.6613 4.19881 1.12644 1.20239" stroke="#EBEDEB" stroke-linecap="round" stroke-linejoin="round" stroke-dasharray="8 2 2 2"/>
</svg>
