<svg width="243" height="29" viewBox="0 0 243 29" fill="none" xmlns="http://www.w3.org/2000/svg">
<path d="M40.8708 14.5267C68.3004 -3.46535 93.2809 -2.95138 120.466 14.5267M40.8708 14.5267C68.0555 32.0047 93.036 32.5187 120.466 14.5267M40.8708 14.5267C27.3945 5.86225 13.9598 1.36347 1 1.22473M40.8708 14.5267C27.3373 23.4038 13.9 27.6724 1 27.7247M120.466 14.5267C147.895 -3.46535 172.876 -2.95138 200.06 14.5267M120.466 14.5267C147.65 32.0047 172.631 32.5187 200.06 14.5267M200.06 14.5267C214.02 5.36998 228.696 0.998126 242 1.22468M200.06 14.5267C213.959 23.4627 228.632 27.8635 242 27.7247" stroke="#485676" stroke-dasharray="2 2"/>
</svg>
