<svg width="242" height="169" viewBox="0 0 242 169" fill="none" xmlns="http://www.w3.org/2000/svg">
<path d="M80.954 49.302C53.6466 31.8239 28.5534 31.31 1 49.302C28.3074 66.78 53.4006 67.294 80.954 49.302ZM80.954 49.302C108.507 31.31 133.601 31.8239 160.908 49.302M80.954 49.302C108.261 66.78 133.355 67.294 160.908 49.302M160.908 49.302C188.461 31.31 213.555 31.8239 240.862 49.302C213.309 67.294 188.215 66.78 160.908 49.302Z" stroke="#EBEDEB" stroke-dasharray="8 2 2 2"/>
<path d="M40.3708 14.302C67.8004 -3.69004 92.7809 -3.17607 119.966 14.302M40.3708 14.302C67.5555 31.7801 92.536 32.294 119.966 14.302M40.3708 14.302C26.8945 5.63756 13.4598 1.13875 0.5 1.00001M40.3708 14.302C26.8373 23.1791 13.4 27.4477 0.5 27.5M119.966 14.302C147.395 -3.69004 172.376 -3.17607 199.56 14.302M119.966 14.302C147.15 31.7801 172.131 32.294 199.56 14.302M199.56 14.302C213.52 5.14529 228.196 0.773449 241.5 1M199.56 14.302C213.459 23.238 228.132 27.6388 241.5 27.5" stroke="#EBEDEB" stroke-dasharray="2 2"/>
<path d="M80.954 119.302C53.6466 101.824 28.5534 101.31 1 119.302C28.3074 136.78 53.4006 137.294 80.954 119.302ZM80.954 119.302C108.507 101.31 133.601 101.824 160.908 119.302M80.954 119.302C108.261 136.78 133.355 137.294 160.908 119.302M160.908 119.302C188.461 101.31 213.555 101.824 240.862 119.302C213.309 137.294 188.215 136.78 160.908 119.302Z" stroke="#EBEDEB" stroke-dasharray="8 2 2 2"/>
<path d="M40.3708 84.302C67.8004 66.31 92.7809 66.8239 119.966 84.302M40.3708 84.302C67.5555 101.78 92.536 102.294 119.966 84.302M40.3708 84.302C26.8945 75.6376 13.4598 71.1388 0.5 71.0001M40.3708 84.302C26.8373 93.1791 13.4 97.4477 0.5 97.5001M119.966 84.302C147.395 66.31 172.376 66.8239 199.56 84.302M119.966 84.302C147.15 101.78 172.131 102.294 199.56 84.302M199.56 84.302C213.52 75.1453 228.196 70.7735 241.5 71M199.56 84.302C213.459 93.2381 228.132 97.6388 241.5 97.5" stroke="#EBEDEB" stroke-dasharray="2 2"/>
<path d="M40.3708 154.302C67.8004 136.31 92.7809 136.824 119.966 154.302M40.3708 154.302C67.5555 171.78 92.536 172.294 119.966 154.302M40.3708 154.302C26.8945 145.638 13.4598 141.139 0.5 141M40.3708 154.302C26.8373 163.179 13.4 167.448 0.5 167.5M119.966 154.302C147.395 136.31 172.376 136.824 199.56 154.302M119.966 154.302C147.15 171.78 172.131 172.294 199.56 154.302M199.56 154.302C213.52 145.145 228.196 140.773 241.5 141M199.56 154.302C213.459 163.238 228.132 167.639 241.5 167.5" stroke="#EBEDEB" stroke-dasharray="2 2"/>
</svg>
