<svg width="243" height="29" viewBox="0 0 243 29" fill="none" xmlns="http://www.w3.org/2000/svg">
<path d="M40.8708 14.3104C68.3004 -3.68168 93.2809 -3.16771 120.466 14.3104M40.8708 14.3104C68.0555 31.7884 93.036 32.3024 120.466 14.3104M40.8708 14.3104C27.3945 5.64592 13.9598 1.14711 1 1.00837M40.8708 14.3104C27.3373 23.1874 13.9 27.456 1 27.5084M120.466 14.3104C147.895 -3.68168 172.876 -3.16771 200.06 14.3104M120.466 14.3104C147.65 31.7884 172.631 32.3024 200.06 14.3104M200.06 14.3104C214.02 5.15365 228.696 0.781811 242 1.00836M200.06 14.3104C213.959 23.2464 228.632 27.6472 242 27.5084" stroke="#EBEDEB" stroke-dasharray="2 2"/>
</svg>
